<svg width="24" height="24" viewBox="0 0 24 24" fill="none" xmlns="http://www.w3.org/2000/svg">
<g id="fluent:people-team-16-filled">
<path id="Vector" d="M12 3C11.6252 3 11.254 3.07755 10.9077 3.22822C10.5614 3.3789 10.2468 3.59974 9.98172 3.87815C9.71667 4.15656 9.50642 4.48708 9.36298 4.85084C9.21954 5.21459 9.14571 5.60447 9.14571 5.9982C9.14571 6.39192 9.21954 6.7818 9.36298 7.14556C9.50642 7.50931 9.71667 7.83983 9.98172 8.11824C10.2468 8.39665 10.5614 8.6175 10.9077 8.76817C11.254 8.91884 11.6252 8.99639 12 8.99639C12.757 8.99639 13.483 8.68051 14.0183 8.11824C14.5536 7.55597 14.8543 6.79337 14.8543 5.9982C14.8543 5.20302 14.5536 4.44042 14.0183 3.87815C13.483 3.31588 12.757 3 12 3ZM18.4286 4.4976C17.8603 4.4976 17.3152 4.73474 16.9133 5.15687C16.5115 5.579 16.2857 6.15152 16.2857 6.7485C16.2857 7.34547 16.5115 7.918 16.9133 8.34012C17.3152 8.76225 17.8603 8.99939 18.4286 8.99939C18.9969 8.99939 19.5419 8.76225 19.9438 8.34012C20.3457 7.918 20.5714 7.34547 20.5714 6.7485C20.5714 6.15152 20.3457 5.579 19.9438 5.15687C19.5419 4.73474 18.9969 4.4976 18.4286 4.4976ZM5.57143 4.4976C5.00311 4.4976 4.45806 4.73474 4.0562 5.15687C3.65434 5.579 3.42857 6.15152 3.42857 6.7485C3.42857 7.34547 3.65434 7.918 4.0562 8.34012C4.45806 8.76225 5.00311 8.99939 5.57143 8.99939C6.13975 8.99939 6.68479 8.76225 7.08666 8.34012C7.48852 7.918 7.71429 7.34547 7.71429 6.7485C7.71429 6.15152 7.48852 5.579 7.08666 5.15687C6.68479 4.73474 6.13975 4.4976 5.57143 4.4976ZM7.71429 11.9901C7.71693 11.5939 7.8686 11.2149 8.13622 10.9358C8.40385 10.6566 8.7657 10.5 9.14286 10.5H14.8571C15.236 10.5 15.5994 10.6581 15.8673 10.9395C16.1352 11.2209 16.2857 11.6026 16.2857 12.0006V16.5024C16.2856 16.9747 16.2152 17.444 16.0771 17.8934C15.7608 18.9119 15.1092 19.7785 14.2393 20.3378C13.3694 20.897 12.3382 21.1121 11.3309 20.9446C10.3236 20.777 9.40612 20.2377 8.74326 19.4236C8.0804 18.6094 7.71558 17.5737 7.71429 16.5024V11.9901ZM6.28571 12.0006C6.28571 11.4529 6.42429 10.9412 6.66857 10.5H3.42857C3.04969 10.5 2.68633 10.6581 2.41842 10.9395C2.15051 11.2209 2 11.6026 2 12.0006V15.7521C1.99981 16.3663 2.14318 16.9711 2.41753 17.5135C2.69189 18.0559 3.08882 18.5193 3.57349 18.8629C4.05815 19.2065 4.61572 19.4198 5.19722 19.4842C5.77873 19.5485 6.36638 19.4619 6.90857 19.232C6.4974 18.3865 6.28389 17.4503 6.28571 16.5009V12.0006ZM17.7143 12.0006V16.5024C17.7143 17.4853 17.49 18.4126 17.0914 19.232C17.6336 19.4619 18.2213 19.5485 18.8028 19.4842C19.3843 19.4198 19.9418 19.2065 20.4265 18.8629C20.9112 18.5193 21.3081 18.0559 21.5825 17.5135C21.8568 16.9711 22.0002 16.3663 22 15.7521V12.0006C22 11.6026 21.8495 11.2209 21.5816 10.9395C21.3137 10.6581 20.9503 10.5 20.5714 10.5H17.3314C17.5743 10.9412 17.7143 11.4529 17.7143 12.0006Z" fill="#C62917"/>
</g>
</svg>
