<svg width="24" height="24" viewBox="0 0 24 24" fill="none" xmlns="http://www.w3.org/2000/svg">
<g id="fluent:people-team-16-filled">
<path id="Vector" d="M2.75 15.7522V15.7524C2.74984 16.2502 2.86613 16.7389 3.08679 17.1751C3.30738 17.6112 3.62452 17.9798 4.00725 18.2512C4.38975 18.5223 4.82678 18.6887 5.27972 18.7389C5.48556 18.7616 5.69257 18.7602 5.89703 18.7349C5.657 18.0182 5.53433 17.2627 5.53571 16.5003M2.75 15.7522L6.28571 16.501M2.75 15.7522V12.0007C2.75 11.7901 2.83001 11.595 2.96163 11.4568C3.09205 11.3198 3.26084 11.2501 3.42857 11.2501H5.60783M2.75 15.7522L6.66857 10.5001H5.83601C5.73554 10.7387 5.65865 10.9897 5.60783 11.2501M5.53571 16.5003C5.53572 16.5001 5.53572 16.4998 5.53572 16.4996L6.28571 16.501M5.53571 16.5003V16.501H6.28571M5.53571 16.5003V12.0007C5.53571 11.7441 5.56043 11.493 5.60783 11.2501M6.28571 16.501V12.0007C6.28571 11.7412 6.31682 11.4898 6.37554 11.2501H5.60783M9.14284 11.2501H9.14286H14.8571C15.0249 11.2501 15.1937 11.3198 15.3241 11.4568C15.4557 11.595 15.5357 11.7901 15.5357 12.0007V16.5024C15.5357 16.5024 15.5357 16.5025 15.5357 16.5025C15.5356 16.9 15.4764 17.2946 15.3606 17.672C15.0947 18.5273 14.5501 19.2465 13.8337 19.707C13.1182 20.167 12.2751 20.3414 11.454 20.2049C10.6323 20.0682 9.87597 19.6271 9.32487 18.9502C8.7732 18.2726 8.46546 17.4048 8.46429 16.502C8.46429 16.5019 8.46429 16.5017 8.46429 16.5016L8.46429 11.9931C8.46621 11.7843 8.54666 11.5915 8.67761 11.4549C8.80782 11.3191 8.97585 11.2501 9.14284 11.2501ZM6.90857 19.2321C6.81657 19.0429 6.73446 18.8492 6.66245 18.6518L6.90857 19.2321ZM21.25 15.7522V15.7524C21.2502 16.2502 21.1339 16.7389 20.9132 17.1751C20.6926 17.6112 20.3755 17.9798 19.9927 18.2512C19.6103 18.5223 19.1732 18.6887 18.7203 18.7389C18.5145 18.7616 18.3075 18.7602 18.103 18.7349C18.3374 18.0349 18.4643 17.2835 18.4643 16.5025V12.0007C18.4643 11.7438 18.4393 11.4928 18.3918 11.2501H20.5714C20.7392 11.2501 20.9079 11.3198 21.0384 11.4568C21.17 11.595 21.25 11.7901 21.25 12.0007V15.7522ZM11.2069 3.91607C11.4596 3.80615 11.7289 3.75012 12 3.75012C12.5459 3.75012 13.0773 3.97755 13.4751 4.39541C13.8741 4.81451 14.1043 5.39048 14.1043 5.99832C14.1043 6.60615 13.8741 7.18212 13.4751 7.60123C13.0773 8.01908 12.5459 8.24651 12 8.24651C11.7289 8.24651 11.4596 8.19048 11.2069 8.08057C10.9542 7.97061 10.7221 7.80837 10.5249 7.60123C10.3276 7.39401 10.1693 7.14602 10.0607 6.87055C9.95205 6.59502 9.89571 6.29854 9.89571 5.99832C9.89571 5.6981 9.95205 5.40161 10.0607 5.12609C10.1693 4.85061 10.3276 4.60263 10.5249 4.39541C10.7221 4.18826 10.9542 4.02603 11.2069 3.91607ZM17.4565 5.67413C17.7209 5.39642 18.0714 5.24772 18.4286 5.24772C18.7857 5.24772 19.1362 5.39642 19.4006 5.67412C19.6662 5.95309 19.8214 6.33898 19.8214 6.74862C19.8214 7.15826 19.6662 7.54415 19.4006 7.82311C19.1362 8.10082 18.7857 8.24952 18.4286 8.24952C18.0714 8.24952 17.7209 8.10082 17.4565 7.82311C17.191 7.54415 17.0357 7.15826 17.0357 6.74862C17.0357 6.33897 17.191 5.95309 17.4565 5.67413ZM4.59941 5.67413C4.86378 5.39642 5.21426 5.24772 5.57143 5.24772C5.9286 5.24772 6.27907 5.39642 6.54345 5.67413C6.80902 5.95309 6.96429 6.33898 6.96429 6.74862C6.96429 7.15826 6.80902 7.54415 6.54345 7.82311C6.27907 8.10082 5.9286 8.24952 5.57143 8.24952C5.21426 8.24952 4.86378 8.10082 4.59941 7.82311C4.33384 7.54415 4.17857 7.15826 4.17857 6.74862C4.17857 6.33898 4.33384 5.95309 4.59941 5.67413Z" stroke="#DCDCDC" stroke-width="1.5"/>
</g>
</svg>
