<svg width="24" height="24" viewBox="0 0 24 24" fill="none" xmlns="http://www.w3.org/2000/svg">
<g id="akar-icons:home-alt1">
<path id="Vector 81" d="M15 14.5V20C15 20.5523 15.4477 21 16 21H19C20.1046 21 21 20.1046 21 19V11.7931C21 10.9678 20.6599 10.1788 20.0599 9.6121L13.3732 3.29696C12.6025 2.56899 11.3975 2.56899 10.6268 3.29695L3.94013 9.6121C3.34006 10.1788 3 10.9678 3 11.7931V19C3 20.1046 3.89543 21 5 21H8C8.55228 21 9 20.5523 9 20V14.5C9 13.9477 9.44772 13.5 10 13.5H14C14.5523 13.5 15 13.9477 15 14.5Z" fill="#C62917"/>
</g>
</svg>
