<svg width="52" height="52" viewBox="0 0 52 52" fill="none" xmlns="http://www.w3.org/2000/svg">
<g id="material-symbols:image-outline">
<path id="Vector 84" d="M42 14V38C42 40.2091 40.2091 42 38 42H14C11.7909 42 10 40.2091 10 38V14C10 11.7909 11.7909 10 14 10H38C40.2091 10 42 11.7909 42 14Z" stroke="black" stroke-width="2"/>
<path id="Vector 83" d="M20.084 28.124L16.0182 34.2226C15.7967 34.5549 16.0349 35 16.4343 35H35.5221C35.93 35 36.1663 34.5379 35.9275 34.2073L30.4023 26.557C30.2036 26.2819 29.7944 26.2804 29.5937 26.554L24.9227 32.9236C24.7174 33.2036 24.2961 33.1942 24.1035 32.9052L20.916 28.124C20.7181 27.8272 20.2819 27.8272 20.084 28.124Z" fill="#C62917"/>
</g>
</svg>
