<svg width="44" height="40" viewBox="0 0 44 40" fill="none" xmlns="http://www.w3.org/2000/svg">
<g id="octicon:video-24">
<path id="Vector 85" d="M42 9V31C42 33.2091 40.2091 35 38 35H6C3.79086 35 2 33.2091 2 31V9C2 6.79086 3.79086 5 6 5H38C40.2091 5 42 6.79086 42 9Z" stroke="black" stroke-width="2"/>
<path id="Vector" d="M17 25.9734V14.0268C17.0002 13.8773 17.0407 13.7306 17.1171 13.6022C17.1935 13.4737 17.3031 13.3682 17.4343 13.2966C17.5655 13.225 17.7136 13.19 17.8629 13.1954C18.0123 13.2007 18.1575 13.2461 18.2833 13.3268L27.5767 19.2984C27.6943 19.3738 27.7912 19.4776 27.8582 19.6002C27.9253 19.7228 27.9604 19.8603 27.9604 20.0001C27.9604 20.1399 27.9253 20.2774 27.8582 20.4C27.7912 20.5226 27.6943 20.6264 27.5767 20.7018L18.2833 26.6751C18.1575 26.7558 18.0123 26.8012 17.8629 26.8065C17.7136 26.8118 17.5655 26.7769 17.4343 26.7053C17.3031 26.6337 17.1935 26.5282 17.1171 26.3997C17.0407 26.2712 17.0002 26.1246 17 25.9751V25.9734Z" fill="#C62917"/>
</g>
</svg>
