<svg width="18" height="18" viewBox="0 0 18 18" fill="none" xmlns="http://www.w3.org/2000/svg">
<g id="mingcute:arrow-down-line" clip-path="url(#clip0_497_7865)">
<g id="Group">
<path id="Vector" d="M8.25001 12.9323L5.28751 9.96975C5.21833 9.89812 5.13557 9.84098 5.04407 9.80167C4.95256 9.76237 4.85415 9.74168 4.75456 9.74081C4.65498 9.73995 4.55622 9.75892 4.46405 9.79663C4.37188 9.83434 4.28814 9.89003 4.21772 9.96045C4.1473 10.0309 4.09161 10.1146 4.0539 10.2068C4.01619 10.299 3.99721 10.3977 3.99808 10.4973C3.99894 10.5969 4.01963 10.6953 4.05894 10.7868C4.09824 10.8783 4.15538 10.9611 4.22701 11.0302L8.46976 15.273C8.61041 15.4136 8.80114 15.4926 9.00001 15.4926C9.19889 15.4926 9.38962 15.4136 9.53026 15.273L13.773 11.0302C13.9096 10.8888 13.9852 10.6993 13.9835 10.5027C13.9818 10.3061 13.9029 10.1179 13.7639 9.97889C13.6248 9.83983 13.4367 9.76095 13.2401 9.75924C13.0434 9.75754 12.854 9.83313 12.7125 9.96975L9.75001 12.9323V3C9.75001 2.80109 9.671 2.61032 9.53034 2.46967C9.38969 2.32902 9.19893 2.25 9.00001 2.25C8.8011 2.25 8.61034 2.32902 8.46968 2.46967C8.32903 2.61032 8.25001 2.80109 8.25001 3V12.9323Z" fill="black"/>
</g>
</g>
<defs>
<clipPath id="clip0_497_7865">
<rect width="18" height="18" fill="white"/>
</clipPath>
</defs>
</svg>
