<svg width="24" height="24" viewBox="0 0 24 24" fill="none" xmlns="http://www.w3.org/2000/svg">
<g id="fluent:people-team-16-filled">
<path id="Vector" d="M2.75 15.7521V15.7523C2.74984 16.2501 2.86613 16.7388 3.08679 17.175C3.30738 17.6111 3.62452 17.9797 4.00725 18.251C4.38975 18.5222 4.82678 18.6886 5.27972 18.7387C5.48556 18.7615 5.69257 18.7601 5.89703 18.7348C5.657 18.0181 5.53433 17.2626 5.53571 16.5002M2.75 15.7521L6.28571 16.5009M2.75 15.7521V12.0006C2.75 11.7899 2.83001 11.5949 2.96163 11.4566C3.09205 11.3196 3.26084 11.25 3.42857 11.25H5.60783M2.75 15.7521L6.66857 10.5H5.83601C5.73554 10.7386 5.65865 10.9896 5.60783 11.25M5.53571 16.5002C5.53572 16.5 5.53572 16.4997 5.53572 16.4994L6.28571 16.5009M5.53571 16.5002V16.5009H6.28571M5.53571 16.5002V12.0006C5.53571 11.7439 5.56043 11.4929 5.60783 11.25M6.28571 16.5009V12.0006C6.28571 11.7411 6.31682 11.4897 6.37554 11.25H5.60783M10.5249 7.60111L9.98172 8.11824L10.5249 7.60111C10.3276 7.39389 10.1693 7.1459 10.0607 6.87043C9.95205 6.5949 9.89571 6.29842 9.89571 5.9982C9.89571 5.69798 9.95205 5.40149 10.0607 5.12597C10.1693 4.85049 10.3276 4.6025 10.5249 4.39528C10.7221 4.18814 10.9542 4.02591 11.2069 3.91595C11.4596 3.80603 11.7289 3.75 12 3.75C12.5459 3.75 13.0773 3.97743 13.4751 4.39528C13.8741 4.81439 14.1043 5.39036 14.1043 5.9982C14.1043 6.60603 13.8741 7.182 13.4751 7.60111C13.0773 8.01896 12.5459 8.24639 12 8.24639C11.7289 8.24639 11.4596 8.19036 11.2069 8.08045C10.9542 7.97049 10.7221 7.80825 10.5249 7.60111ZM9.14284 11.25H9.14286H14.8571C15.0249 11.25 15.1937 11.3196 15.3241 11.4566C15.4557 11.5949 15.5357 11.7899 15.5357 12.0006V16.5022C15.5357 16.5023 15.5357 16.5023 15.5357 16.5024C15.5356 16.8999 15.4764 17.2945 15.3606 17.6718C15.0947 18.5272 14.5501 19.2464 13.8337 19.7069C13.1182 20.1668 12.2751 20.3413 11.454 20.2047C10.6323 20.0681 9.87597 19.6269 9.32487 18.95C8.7732 18.2724 8.46546 17.4046 8.46429 16.5019C8.46429 16.5017 8.46429 16.5016 8.46429 16.5015L8.46429 11.993C8.46621 11.7841 8.54666 11.5914 8.67761 11.4548C8.80782 11.319 8.97585 11.25 9.14284 11.25ZM6.90857 19.232C6.81657 19.0428 6.73446 18.8491 6.66245 18.6517L6.90857 19.232ZM21.25 15.7521V15.7523C21.2502 16.2501 21.1339 16.7388 20.9132 17.175L21.5825 17.5135L20.9132 17.175C20.6926 17.6111 20.3755 17.9797 19.9927 18.251C19.6103 18.5222 19.1732 18.6886 18.7203 18.7387C18.5145 18.7615 18.3075 18.76 18.103 18.7348C18.3374 18.0348 18.4643 17.2833 18.4643 16.5024V12.0006C18.4643 11.7437 18.4393 11.4926 18.3918 11.25H20.5714C20.7392 11.25 20.9079 11.3196 21.0384 11.4566C21.17 11.5949 21.25 11.7899 21.25 12.0006V15.7521ZM17.4565 5.674C17.7209 5.3963 18.0714 5.2476 18.4286 5.2476C18.7857 5.2476 19.1362 5.3963 19.4006 5.674C19.6662 5.95296 19.8214 6.33885 19.8214 6.7485C19.8214 7.15814 19.6662 7.54403 19.4006 7.82299C19.1362 8.10069 18.7857 8.24939 18.4286 8.24939C18.0714 8.24939 17.7209 8.10069 17.4565 7.82299C17.191 7.54403 17.0357 7.15814 17.0357 6.7485C17.0357 6.33885 17.191 5.95296 17.4565 5.674ZM4.59941 5.674C4.86378 5.3963 5.21426 5.2476 5.57143 5.2476C5.9286 5.2476 6.27907 5.3963 6.54345 5.674C6.80902 5.95296 6.96429 6.33885 6.96429 6.7485C6.96429 7.15814 6.80902 7.54403 6.54345 7.82299C6.27907 8.10069 5.9286 8.24939 5.57143 8.24939C5.21426 8.24939 4.86378 8.10069 4.59941 7.82299C4.33384 7.54403 4.17857 7.15814 4.17857 6.7485C4.17857 6.33885 4.33384 5.95296 4.59941 5.674Z" stroke="#C62917" stroke-width="1.5"/>
</g>
</svg>
